/* XPM */
static char *_be0bb4409a74ec4ba21f7551a3f1d9eRXwWDLIrPSBgUfmN[] = {
/* columns rows colors chars-per-pixel */
"50 50 229 2 ",
"   c None",
".  c #0D0B0C",
"X  c #090708",
"o  c #161D0A",
"O  c #110F10",
"+  c #031215",
"@  c #0B1315",
"#  c #0E1718",
"$  c #141213",
"%  c #15151B",
"&  c #1C1A1C",
"*  c #1A1817",
"=  c #020B13",
"-  c #271A17",
";  c #34181B",
":  c #240A0C",
">  c #1C230E",
",  c #1C2412",
"<  c #1B2513",
"1  c #202712",
"2  c #232A15",
"3  c #2A231A",
"4  c #382817",
"5  c #2C331E",
"6  c #2F2F15",
"7  c #1C1D21",
"8  c #171820",
"9  c #231F20",
"0  c #2C1F20",
"q  c #162021",
"w  c #1B2223",
"e  c #232122",
"r  c #2C2624",
"t  c #382D22",
"y  c #2E3522",
"u  c #373727",
"i  c #383637",
"p  c #2E3536",
"a  c #49181B",
"s  c #541A1D",
"d  c #66181E",
"f  c #781A1F",
"g  c #58351B",
"h  c #432A1B",
"j  c #581D20",
"k  c #751C20",
"l  c #493828",
"z  c #4E3A3B",
"x  c #642622",
"c  c #6C3329",
"v  c #77401C",
"b  c #5D5427",
"n  c #444A38",
"m  c #5D472B",
"M  c #6F4F2C",
"N  c #757236",
"B  c #494748",
"V  c #515747",
"C  c #535556",
"Z  c #78564C",
"A  c #5C6151",
"S  c #6C6E67",
"D  c #87191E",
"F  c #9C161B",
"G  c #981C22",
"H  c #891C21",
"J  c #B71F24",
"K  c #A51D21",
"L  c #863728",
"P  c #B0312D",
"I  c #DC171E",
"U  c #CC181F",
"Y  c #F7171F",
"T  c #C91E24",
"R  c #DC1F25",
"E  c #D41B24",
"W  c #E61E25",
"Q  c #F41C25",
"!  c #C5242A",
"~  c #D62027",
"^  c #E52128",
"/  c #F82128",
"(  c #8D4A1C",
")  c #A6551C",
"_  c #8A4C32",
"`  c #8D5234",
"'  c #8C573A",
"]  c #935436",
"[  c #94593A",
"{  c #98583A",
"}  c #8C4D29",
"|  c #AF5824",
" . c #9C673B",
".. c #917437",
"X. c #A87639",
"o. c #BB7A36",
"O. c #B46A2F",
"+. c #CD711A",
"@. c #C96A2A",
"#. c #CC712D",
"$. c #D05225",
"%. c #9B5E42",
"&. c #8B564A",
"*. c #986247",
"=. c #8C6C58",
"-. c #A86846",
";. c #AC7549",
":. c #B4754A",
">. c #AA7755",
",. c #BA7B54",
"<. c #B47551",
"1. c #B36C48",
"2. c #9F5F57",
"3. c #C27E55",
"4. c #6DAA3D",
"5. c #60B13E",
"6. c #64903D",
"7. c #2A8E43",
"8. c #55A945",
"9. c #60A243",
"0. c #96863B",
"q. c #A6853A",
"w. c #BB933E",
"e. c #8BB53F",
"r. c #D68713",
"t. c #E89914",
"y. c #EA970A",
"u. c #FAAD1A",
"i. c #F8AA18",
"p. c #FEB119",
"a. c #F0A014",
"s. c #C68839",
"d. c #C5973E",
"f. c #CE8422",
"g. c #F5AD27",
"h. c #8E9947",
"j. c #949641",
"k. c #B68942",
"l. c #BB9648",
"z. c #B38956",
"x. c #88A947",
"c. c #97B449",
"v. c #B2A947",
"b. c #B38A6F",
"n. c #91986A",
"m. c #C98B44",
"M. c #C59947",
"N. c #C88559",
"B. c #D48E5D",
"V. c #DC8653",
"C. c #D6905F",
"Z. c #C79859",
"A. c #CAA248",
"S. c #C8A346",
"D. c #D3AC4C",
"F. c #D7AD49",
"G. c #DBB44E",
"H. c #D6B14C",
"J. c #DDBA50",
"K. c #D8B357",
"L. c #CFB849",
"P. c #E2BD51",
"I. c #E2B04F",
"U. c #CC8E63",
"Y. c #C8986C",
"T. c #D69261",
"R. c #D99562",
"E. c #DC9A66",
"W. c #DD9D6A",
"Q. c #D5996A",
"!. c #C59B79",
"~. c #D48F64",
"^. c #DEA06D",
"/. c #DAA76A",
"(. c #DCA271",
"). c #D8A977",
"_. c #CCA778",
"`. c #E2A26E",
"'. c #E3A671",
"]. c #E6AA74",
"[. c #E9AE77",
"{. c #E9AE78",
"}. c #E5AD79",
"|. c #ECB47D",
" X c #F0B77F",
".X c #EAC654",
"XX c #F2CD57",
"oX c #F4D259",
"OX c #FEDD5C",
"+X c #F9D759",
"@X c #E8C851",
"#X c #FEE25E",
"$X c #FFE861",
"%X c #E1CD61",
"&X c #BB9A84",
"*X c #BFA785",
"=X c #CA9A83",
"-X c #D2A883",
";X c #CAA595",
":X c #CEB092",
">X c #EEB981",
",X c #EDB780",
"<X c #F2BC84",
"1X c #D9BBA3",
"2X c #D6B7A5",
"3X c #D9BBB4",
"4X c #E3B6A9",
"5X c #F5C187",
"6X c #F7C288",
"7X c #FAC489",
"8X c #D9C2AC",
"9X c #DCC8B8",
"0X c #E4CFB9",
"qX c #F8BBD1",
"wX c #DECDC5",
"eX c #E9CCCC",
"rX c #E6D6C7",
"tX c #F9CBD8",
"yX c #F4D7DB",
"uX c #F1E2D6",
"iX c #EEE1D9",
"pX c #FED7E2",
"aX c #F4ECE4",
"sX c #FBE8E8",
"dX c #FDF4EB",
"fX c #FFFBEE",
"gX c #FEFCF4",
"hX c #FEFDFC",
"jX c #E9E4E3",
/* pixels */
"                                                                                                    ",
"                                                                                                    ",
"                                n 5                                                                 ",
"                          n y 2 > >                                                                 ",
"                      u 2 1 2 2 2 > V                                                               ",
"                  V 2 > 2 2 2 2 2 > n                                                               ",
"                  > 2 2 2 2 2 2 2 2 y               >.                                              ",
"                  2 2 2 2 2 2 2 2 2 2         %.1.z.,.-.] &.                                        ",
"            n u , , 2 2 2 2 2 2 2 2 >     b.{ '.<X7X6X<X|.<.`                                       ",
"        V 5 > 2 2 2 2 2 2 2 2 2 2 2 > V   { |.5X}.'.W.`.'.<.` { ;.-.{ _ &.                          ",
"      n o 2 2 2 2 , 2 2 2 2 2 2 2 2 1 y ' Y.5X^.~.B.C.3.` { ^.<X6X5X>XW.1._                         ",
"        > 2 2 2 2 2 2 2 2 2 2 2 2 2 2 2 { <X`.C.`.[.Q.{ *.,X6X,X}.].{.<X6XU.}                       ",
"        > 2 2 2 2 2 2 2 2 2 2 2 2 2 2 4 ,. XC.[.<X>Xz.` ].5X'.R.C.C.C.R.'.6X~.'                     ",
"    A 1 > 2 2 2 2 2 2 1 2 2 2 2 2 2 , 4 ,.`.E.<X,X~.] <.6X`.B.R.E.R.T.T.B.N.Y.] =.                  ",
"  5 > 2 2 2 2 2 2 2 2 2 1 2 2 2 2 2 2 1 -.`.E. XW.N.` (.|.C.`.|.<X<X[.,.{ _ _ { { ' *.              ",
"V o 2 2 2 1 2 2 2 2 2 2 1 2 2 2 2 2 > 6 ' W.[.].T.3.] ].E.^.<X<X{.Q.;.` <.Q.}.,X{.(.,.]             ",
"  n > 2 2 2 1 2 2 2 2 2 2 , 2 2 < > b @XM.%.>X].T.N.[ (.R.].5X'.B.-.` Q.<X X|.|.<X6X6X`.]           ",
"    2 1 2 2 2 2 2 2 2 2 2 , o 2 b l.$XH.H.k.%.U.R.T.[ N.W.'.|.C.,._ Q.'.C.B.C.T.R.'.<X6XW._         ",
"      1 1 2 2 > 2 2 2 2 o u 0.J.#X$XD.D..XM.M.w.:.N.1.-.[.|.W.C. .<.].B.W.|.].W.C.B.W.|.7X:.*.      ",
"      S > 2 2 2 1 2 1 o N oX#X.XG.M.H.J.S.XX@Xc.j.j.N M ,.5X^.B.' W.].].<X<X<X<X'.C.C.'.<X(._       ",
"        l 1 2 2 2 1 * ..#XXXM.D.P.oXP.A.#X%X4.c.h.4.h.x.X.-.U.B.[ ,X<X].'.].[.>X<XE.C.R.|.>X{ =.    ",
"        F < 2 2 2 , b #XXXw.@X+XP.S.d..X@XS.7.h.j.4.6.8.v.m.X.;.{ '.E.C.C.C.C.E.<X].C.C.].<X .L     ",
"      P d O 6 < > > w.%XY._._.k.M.-X0X0X8Xz.4.8.6.x.5.8.7.c.oXA. .B.R.R.R.B.N.B.'.|.T.C.^.5X;.P %.  ",
"      E 3 O  .0.1 Z 3X-X'.1X3X;XuXgXgXfXgXrXh.l.n.m.0.c.8.4.D..Xw.N.C.3.1.1.N.C.^.>XR.C.^.<X*.L T   ",
"    Z E % $ X.+Xb.aX/.u.p.r.;XhXgXhXfXdXdXgX&XwXsX9X8Xz.v.L.K..XH.z.:.1.3.R.R.C.[.>XR.C.'.,X[ x E   ",
"    c R ; $ O.F.uX0Xy.p.t.Y.3XI.F.}.uXfXdXdX0XqXtXpXhX:XH.l..XD.@X;.E.R.R.R.C.W.<X].C.R.<XQ.M a W   ",
"      Q a @ ( m.dX1Xt.p.s.!.g.g.i.y.Z.dXdXgX;X4XsXtX3X2XwXaX:Xw.XX .3.E.C.C.`.|.'.T.~.[.,X-.h k ^   ",
"      R G + g O.9XiXf.t.z.g.g.i.u.p.r.1XgXdX&XeXpX3XeXyXqXqXyX9XK.m.] ~. X<X<XW.C.W. X>X1.c $ T !   ",
"      P Q ; $ ( s.0X1Xo.=Xi.i.u.u.u.r.-XhXrX=XdXgXwXaXqXsXsXqXhX*XL.X.M <.(.,X,X|.|.~.-.c # j Q 2.  ",
"        E T * % v O._.&X1Xt.p.u.u.i.+.1XdX1X,.&XwX9XaXtXtXsXtXyX>.D.A.k._ _ ] %.{ { M 4 @ ; W J     ",
"        &.Q J * + 4 ) o.wX/.y.i.t.r.M.aX3X_.I.D.z.b.jXdXpXtXeX=Xk.S.oX.Xl.X.k.k.| g $ + ; R R       ",
"          x Q T ; + - $.~.jX-Xm.m._.rX1XY.M.XXOXOXS.b.;XwXsX9Xb.M.oXD.k.Z.M.OX.X} $ + s W W z       ",
"          C a ^ / k @ t @.3.4X1X;X=X3.O.K.+XH.H.J.J.S.l.z.b.b.K.OXS.S.H.J.oXG.v * & G / T :         ",
"            w e K / E j 4 ( ) | | ( ) m.M.D.XX@XJ.D.M.s.w.#.M.A.#.O.#.s.X.M 3 $ k ^ / D X p         ",
"              8 w a J / E f a : # = ..$XH.l.} #.@.@.@.@.| v h - ; h 4 3 * a F ^ / K ; = .           ",
"              i 7 w w s K ^ / U H x .XJ.M..X3 4 g g 4 - @ + @ % & ; j G R / R D ; + . X C           ",
"                & 7 e w < 0 j G E $.OXk.k.@Xk f k d d k H G K ! W / ^ T H a $ + @ $ . r             ",
"                  % 9 e e w w 7 7 l OX ...OXP E R W R R R T J G k s 0 7 @ . $ $ $ $ .               ",
"                  C $ 9 e e e e w u +X..m $X..# 9 0 9 9 9 7 w 7 q w w & $ $ $ $ $ X                 ",
"                    B * e e e e 8 l OX..l #XS.& w e 9 e e e w e w e e $ $ $ $ O X A                 ",
"                      z & e e w r A.$Xb u OXP.r 9 e e e e e e e e e % $ $ $ $ . C                   ",
"                        B & e 7 M $XK.& M $XJ.3 9 e e e e e e e e - O $ $ . $                       ",
"                            9 & t m r t J.$Xk.% e e 9 e e e 9 e 7 $ $ $ . 9                         ",
"                              i % % 8 l oXH.r q e e e e e e e & $ $ . $ B                           ",
"                                  i * e l r 7 9 e e e e e w * $ $ O i                               ",
"                                    B O $ 7 9 9 e e e 9 & $ $ $ X i                                 ",
"                                      B $ O O $ * * % $ O . O $ B                                   ",
"                                            p r & $ $ & r i i                                       ",
"                                                                                                    ",
"                                                                                                    "
};